<svg xmlns="http://www.w3.org/2000/svg" xmlns:xlink="http://www.w3.org/1999/xlink" viewBox="0 0 156.98 156.98"><defs><style>.cls-1{fill:url(#linear-gradient);}.cls-2{fill:#fbce01;}</style><linearGradient id="linear-gradient" x1="78.49" y1="17.04" x2="78.49" y2="153.91" gradientUnits="userSpaceOnUse"><stop offset="0" stop-color="#fbcb01"/><stop offset="0.57" stop-color="#ff7a00"/></linearGradient></defs><g id="Layer_2" data-name="Layer 2"><g id="Layer_1-2" data-name="Layer 1"><circle class="cls-1" cx="78.49" cy="78.49" r="78.49"/><circle cx="78.49" cy="78.49" r="60.92"/><path class="cls-2" d="M106.63,77.68V89.87c0,.23-.08.47-.11.7a10.25,10.25,0,0,1-9.09,8.94c-.44,0-.88.07-1.35.11v.4c0,1.13,0,2.27,0,3.4a3.15,3.15,0,0,1-2.34,3,5.44,5.44,0,0,1-1.39.16H76.54c-4.09,0-8.19,0-12.28,0a3.23,3.23,0,0,1-3.34-3.32c0-1.11,0-2.23,0-3.34,0-.11,0-.22,0-.35l-.49,0A10.36,10.36,0,0,1,50.36,89c0-3.51,0-7,0-10.53a11.79,11.79,0,0,1,.17-2A10.22,10.22,0,0,1,59,68.1c.63-.1,1.26-.14,1.93-.21v-.33c0-2.44,0-4.88,0-7.32,0-2.2,0-4.41,0-6.62a3.13,3.13,0,0,1,2.32-3.1,5.38,5.38,0,0,1,1.45-.17H92.83a3.17,3.17,0,0,1,3.07,2.31,6,6,0,0,1,.18,1.58c0,4.42,0,8.83,0,13.25v.39c.69.08,1.34.13,2,.23a10.24,10.24,0,0,1,8.26,7.82C106.45,76.51,106.53,77.09,106.63,77.68ZM64.44,103.09h28.1v-14H64.44ZM99.6,92.54c0-.12,0-.22,0-.32,0-1,0-2,0-3a8.16,8.16,0,0,0-.15-1.48,7,7,0,0,0-7-5.69q-11.69,0-23.35,0c-1.78,0-3.57-.05-5.35,0A6.88,6.88,0,0,0,57.5,88c-.16,1.48-.07,3-.09,4.49,0,0,0,0,0,.07h3.48v-.35c0-1.14,0-2.28,0-3.41a3.15,3.15,0,0,1,2.25-3.06,5.45,5.45,0,0,1,1.51-.2H92.41a3.33,3.33,0,0,1,3.67,3.64c0,1,0,2,0,3v.35ZM89.05,57.4V67.91h3.49v-14H64.44v14h3.5V57.4ZM71.47,67.91h14v-7h-14ZM89.06,78.46h3.48V75H89.06Zm7,0h3.48V75H96.09Z"/></g></g></svg>