<svg xmlns="http://www.w3.org/2000/svg" xmlns:xlink="http://www.w3.org/1999/xlink" viewBox="0 0 156.98 156.98"><defs><style>.cls-1{fill:url(#linear-gradient);}.cls-2{fill:#fbce01;}</style><linearGradient id="linear-gradient" x1="78.49" y1="17.04" x2="78.49" y2="153.91" gradientUnits="userSpaceOnUse"><stop offset="0" stop-color="#fbcb01"/><stop offset="0.57" stop-color="#ff7a00"/></linearGradient></defs><g id="Layer_2" data-name="Layer 2"><g id="Layer_1-2" data-name="Layer 1"><circle class="cls-1" cx="78.49" cy="78.49" r="78.49"/><circle cx="78.49" cy="78.49" r="60.92"/><path class="cls-2" d="M76.65,106.69c-.5-.06-1-.09-1.51-.2-1.78-.41-3.56-.82-5.33-1.26-2.49-.62-5-1.3-7.44-1.9a27.13,27.13,0,0,0-4.93-.61c-1.2-.07-2.41-.15-3.61-.29a1.93,1.93,0,0,1-1.64-1.72,2.16,2.16,0,0,1,1.11-2.28,2.79,2.79,0,0,1,1-.2,35.45,35.45,0,0,1,11.63,1.34c2.53.71,5.07,1.37,7.61,2a16.82,16.82,0,0,0,4.52.56A16.43,16.43,0,0,0,83.38,101a83.74,83.74,0,0,0,7.71-3.38c1.82-.88,3.62-1.82,5.43-2.75a1.4,1.4,0,0,0,.81-1.18c.06-.66-.32-1.1-1-1-.95.13-1.9.28-2.83.5-3.12.73-6.22,1.48-9.33,2.24a.7.7,0,0,0-.37.27c-.29.41-.54.86-.84,1.27a4.75,4.75,0,0,1-3.47,2,12.68,12.68,0,0,1-4.75-.46c-2-.52-4.08-1.07-6.11-1.61-.25-.07-.49-.19-.73-.28A2.18,2.18,0,0,1,66.54,95a1.49,1.49,0,0,1,0-.81A4.64,4.64,0,0,1,67.15,93,1.75,1.75,0,0,1,69,92.45c1.18.25,2.34.58,3.51.85,1.76.42,3.51.82,5.27,1.22a4.56,4.56,0,0,0,.82.08,1,1,0,0,0,1-.72,1.06,1.06,0,0,0-.32-1.24c-.66-.39-1.31-.81-2-1.16a77.17,77.17,0,0,0-7.13-3.2,9.13,9.13,0,0,0-5.14-.49c-1.94.33-3.87.7-5.8,1a24.49,24.49,0,0,1-5,.39,1.51,1.51,0,0,1-1.18-.55,2.5,2.5,0,0,1-.6-2.09,1.56,1.56,0,0,1,1.08-1.34,8.88,8.88,0,0,1,1.83-.44,70.16,70.16,0,0,0,7.92-1.25,16.82,16.82,0,0,1,4-.4A14,14,0,0,1,72,84.2a86.45,86.45,0,0,1,8.65,4,6.29,6.29,0,0,1,2.8,2.55c.13.24.27.26.53.2,2.94-.72,5.88-1.44,8.82-2.14a29.88,29.88,0,0,1,3-.56,5.31,5.31,0,0,1,6,4.31,7,7,0,0,1,0,2.63A4.51,4.51,0,0,1,99.88,98a19.54,19.54,0,0,1-3.6,2.14c-3.49,1.69-7,3.39-10.56,4.83a23.32,23.32,0,0,1-7.12,1.71,1.43,1.43,0,0,0-.22,0Z"/><path class="cls-2" d="M87.05,85.11a14.06,14.06,0,0,1-8.51-2.37,18.06,18.06,0,0,1-7.66-9.51,16.94,16.94,0,0,1-.75-7A17.44,17.44,0,0,1,96.3,52.71a18.08,18.08,0,0,1,3.59,2.95,16.43,16.43,0,0,1,4.58,8.26,16.88,16.88,0,0,1,.33,4.54,15.42,15.42,0,0,1-1.37,6.34,17.66,17.66,0,0,1-11,9.75,16.24,16.24,0,0,1-5.15.56ZM84.82,71h.32c1.09,0,2.17,0,3.25-.07a9.87,9.87,0,0,0,3.91-1,7.53,7.53,0,0,0,3.79-3.77,8.64,8.64,0,0,0,.51-4.77,6,6,0,0,0-2.24-4,8.6,8.6,0,0,0-3.8-1.6,20.39,20.39,0,0,0-5.94-.17c-1.17.16-2.34.4-3.51.6a.54.54,0,0,0-.49.57c0,.59-.11,1.19-.11,1.78,0,4.52,0,9-.06,13.55v.34L79,72.55c-.59,0-.59,0-.59.64v1.56l2.06.16v.28c0,.83,0,1.67,0,2.5,0,.55.06,1.11.12,1.66s.17.65.7.74a8.38,8.38,0,0,0,2.5,0c.81-.11.9-.18.94-1,.05-1.28.06-2.56.09-3.85V74.9l5.68-.14c0-.46.08-.89.09-1.32a.74.74,0,0,0-.63-.81A4.75,4.75,0,0,0,89,72.5l-3.88,0h-.33Z"/><path class="cls-2" d="M84.82,67.7c0-.11,0-.21,0-.3,0-2.14,0-4.28,0-6.41,0-.51.07-1,.11-1.52a.39.39,0,0,1,.39-.41,11.42,11.42,0,0,1,4.12.18,3.53,3.53,0,0,1,2.8,3.59,4.18,4.18,0,0,1-2.65,4.23,12.33,12.33,0,0,1-2.42.47C86.41,67.63,85.63,67.65,84.82,67.7Z"/></g></g></svg>