<svg xmlns="http://www.w3.org/2000/svg" xmlns:xlink="http://www.w3.org/1999/xlink" viewBox="0 0 156.98 156.98"><defs><style>.cls-1{fill:url(#linear-gradient);}.cls-2{fill:#fbce01;}</style><linearGradient id="linear-gradient" x1="78.49" y1="17.04" x2="78.49" y2="153.91" gradientUnits="userSpaceOnUse"><stop offset="0" stop-color="#fbcb01"/><stop offset="0.57" stop-color="#ff7a00"/></linearGradient></defs><g id="Layer_2" data-name="Layer 2"><g id="Layer_1-2" data-name="Layer 1"><circle class="cls-1" cx="78.49" cy="78.49" r="78.49"/><circle cx="78.49" cy="78.49" r="60.92"/><path class="cls-2" d="M97.57,104.34V105a2.7,2.7,0,0,1-1.42,2l-.16.13H61l-.63-.46a2.4,2.4,0,0,1-.66-3,2.63,2.63,0,0,1,2.14-1.31c.44,0,.89,0,1.35-.08a2.64,2.64,0,0,1,0-.29c0-1.09,0-2.18.08-3.27a21.33,21.33,0,0,1,.19-2.65A15.47,15.47,0,0,1,66.61,89a33.67,33.67,0,0,1,3.9-3.93c1-1,2.08-1.88,3-2.89a4.86,4.86,0,0,0,1.51-4c0-.13,0-.27,0-.4a5.16,5.16,0,0,0-.17-.8,6.76,6.76,0,0,0-1.48-2.32q-.74-.75-1.5-1.47a64.26,64.26,0,0,1-4.7-4.49,14.57,14.57,0,0,1-3.65-7.43,38.79,38.79,0,0,1-.29-4c0-.83,0-1.65,0-2.49l-.68-.06c-.39,0-.79-.06-1.19-.13a2.32,2.32,0,0,1-1.91-2.78,2.29,2.29,0,0,1,2.21-1.82c1.27,0,2.54,0,3.82,0H95.72a.53.53,0,0,1,.28,0,2.82,2.82,0,0,1,1.42,1.52l.15.46v.59l-.09.3a2.4,2.4,0,0,1-2.31,1.8l-1.37.11c0,.11,0,.2,0,.29,0,1.4-.07,2.8-.12,4.2A14.68,14.68,0,0,1,91,67.14a26.35,26.35,0,0,1-4.11,4.4c-1.25,1.15-2.48,2.31-3.65,3.52a4.84,4.84,0,0,0-1.37,3.15A5,5,0,0,0,83.31,82c1,1,2,2,3,2.92a35.8,35.8,0,0,1,4.21,4.32,14.23,14.23,0,0,1,3,7.76c.12,1.63.12,3.27.18,4.9,0,.12,0,.24,0,.35.48,0,.91,0,1.35.08A2.5,2.5,0,0,1,97.43,104C97.48,104.11,97.52,104.23,97.57,104.34ZM91.84,54.7H65.11c0,.07,0,.12,0,.16.05,1.52.05,3,.15,4.55a12.69,12.69,0,0,0,2.42,6.8,27,27,0,0,0,3.93,4.14,41.82,41.82,0,0,1,3.66,3.51,7.1,7.1,0,0,1,1.59,6.24,6,6,0,0,1-1.29,2.61,25.69,25.69,0,0,1-2.9,3c-1.13,1.05-2.29,2.07-3.39,3.16a13.57,13.57,0,0,0-3.88,7.33,34.08,34.08,0,0,0-.25,6.06l0,0h26.7a1,1,0,0,0,0-.16c0-1.31-.06-2.62-.1-3.94a13.06,13.06,0,0,0-2.43-7.36,25.31,25.31,0,0,0-3.64-3.89c-1.14-1.06-2.31-2.08-3.41-3.18A7,7,0,0,1,80,78a6.56,6.56,0,0,1,.81-2.85,11.28,11.28,0,0,1,2.12-2.59c1.54-1.45,3.14-2.85,4.65-4.34a13.4,13.4,0,0,0,4-7.77,36.67,36.67,0,0,0,.21-3.78C91.86,56,91.84,55.38,91.84,54.7Z"/><path class="cls-2" d="M66.58,61.79H90.39c0,.18-.1.31-.14.44a12.79,12.79,0,0,1-3.46,5.46c-1.31,1.26-2.68,2.46-4,3.71-.62.59-1.2,1.21-1.78,1.85a7.79,7.79,0,0,0-2,4.5,6.54,6.54,0,0,1-.17.86c0,.19-.17.37-.38.33a.53.53,0,0,1-.31-.33c-.13-.57-.21-1.16-.33-1.74a8,8,0,0,0-2.16-4c-1.25-1.29-2.6-2.49-3.91-3.72a25,25,0,0,1-3.25-3.42A14.52,14.52,0,0,1,66.64,62,2.24,2.24,0,0,1,66.58,61.79Z"/><path class="cls-2" d="M66.6,101.22c.2-.17.33-.28.47-.38C70.53,98.4,74,96,77.43,93.52a1.61,1.61,0,0,1,1.94-.07l.91.58.4.23c0-.12,0-.19,0-.26A.7.7,0,0,1,82,93.71a.6.6,0,0,1-.35.75l-.38.14c.18.16.31.3.46.41l3.63,2.58,4.51,3.22a1.7,1.7,0,0,1,.41.43c-.26,0-.51.05-.77.06-1.44,0-2.87,0-4.31,0H69.8c-.94,0-1.88,0-2.83-.08Z"/><path class="cls-2" d="M78.26,83.88a.72.72,0,0,1-1.44,0,1,1,0,0,1,.75-.75A1,1,0,0,1,78.26,83.88Z"/><path class="cls-2" d="M79.44,91.74a1.06,1.06,0,0,1-.72-.78.73.73,0,0,1,1.45,0A.94.94,0,0,1,79.44,91.74Z"/><path class="cls-2" d="M75.92,92.9a.66.66,0,0,1,.66-.7.7.7,0,0,1,.67.73.75.75,0,0,1-.66.73A.75.75,0,0,1,75.92,92.9Z"/><path class="cls-2" d="M79.45,83.09a.66.66,0,0,1-.69-.67.69.69,0,0,1,.7-.71.72.72,0,0,1,.68.7A.68.68,0,0,1,79.45,83.09Z"/><path class="cls-2" d="M79.41,86.9a.64.64,0,0,1-.65-.67.67.67,0,0,1,.73-.69.7.7,0,0,1,.65.72A.68.68,0,0,1,79.41,86.9Z"/><path class="cls-2" d="M77.5,89.28a.72.72,0,0,1-.69-.66.7.7,0,0,1,.69-.68.74.74,0,0,1,.76.66A.78.78,0,0,1,77.5,89.28Z"/><path class="cls-2" d="M78.52,81.18a.71.71,0,0,1-.07-1.42.84.84,0,0,1,.72.67A.72.72,0,0,1,78.52,81.18Z"/></g></g></svg>