<svg xmlns="http://www.w3.org/2000/svg" xmlns:xlink="http://www.w3.org/1999/xlink" viewBox="0 0 156.98 156.98"><defs><style>.cls-1{fill:url(#linear-gradient);}.cls-2{fill:#fbce01;}</style><linearGradient id="linear-gradient" x1="78.49" y1="17.04" x2="78.49" y2="153.91" gradientUnits="userSpaceOnUse"><stop offset="0" stop-color="#fbcb01"/><stop offset="0.57" stop-color="#ff7a00"/></linearGradient></defs><g id="Layer_2" data-name="Layer 2"><g id="Layer_1-2" data-name="Layer 1"><circle class="cls-1" cx="78.49" cy="78.49" r="78.49"/><circle cx="78.49" cy="78.49" r="60.92"/><path class="cls-2" d="M96.5,72.36a7,7,0,0,1-.82,2.75,3.56,3.56,0,0,1-1.41,1.39c-.24.13-.48.27-.73.38a6.25,6.25,0,0,0-3.6,4.62c0,.26-.11.52-.17.78a3.79,3.79,0,0,1-1.46,2.33,13.33,13.33,0,0,1-1.69,1.06,3.31,3.31,0,0,1-2.77.16,9,9,0,0,0-2.07-.56,5.84,5.84,0,0,0-4.5,1.28l-.43.36a2.81,2.81,0,0,1-2.43.68,11.86,11.86,0,0,1-3.2-.92,3.26,3.26,0,0,1-1.86-2A6.25,6.25,0,0,0,68,82.48a5.92,5.92,0,0,0-3.72-1.9,3.77,3.77,0,0,1-3.06-2.1,11.38,11.38,0,0,1-.7-1.5,3.71,3.71,0,0,1,0-2.44,11,11,0,0,0,.57-2.6A6.35,6.35,0,0,0,60,68c-.17-.25-.33-.51-.49-.77A3.72,3.72,0,0,1,59,64.35a12.61,12.61,0,0,1,.46-1.56,2.72,2.72,0,0,1,1.44-1.54,7.79,7.79,0,0,0,2.36-1.53,9.85,9.85,0,0,0,2.81-4.91,3.55,3.55,0,0,1,1.29-2.24,4.37,4.37,0,0,1,2.71-1.18,7.81,7.81,0,0,1,1.73.28,9.64,9.64,0,0,0,2.81.44,7.7,7.7,0,0,0,3.84-1.19A6.07,6.07,0,0,1,80.41,50a4.9,4.9,0,0,1,5.2,2.31l.43.77a6.73,6.73,0,0,0,4.29,3.4c.52.16,1,.31,1.56.48a4.33,4.33,0,0,1,2.93,4.61c-.1.82-.29,1.63-.42,2.45a9,9,0,0,0,0,3,5.68,5.68,0,0,0,1,2.29c.2.29.39.57.58.87A3.6,3.6,0,0,1,96.5,72.36ZM77.71,82.49a13.81,13.81,0,1,0-13.8-13.84A13.83,13.83,0,0,0,77.71,82.49Z"/><path class="cls-2" d="M93.26,87l6.26,14.57-9.2-4.34L87.41,107h-.07L80.87,92.08A23.36,23.36,0,0,0,93.26,87Z"/><path class="cls-2" d="M66.66,97.2l-9.2,4.34,6.25-13.9A23.09,23.09,0,0,0,69.49,91,29.08,29.08,0,0,0,76,92.43L69.6,107.06Z"/><path class="cls-2" d="M77.7,56.69a12,12,0,1,1-12,12A12,12,0,0,1,77.7,56.69ZM76,70.35,72.8,67.11l-2.3,2.3L76.05,75,86.31,64.69,84,62.38Z"/></g></g></svg>