<svg xmlns="http://www.w3.org/2000/svg" xmlns:xlink="http://www.w3.org/1999/xlink" viewBox="0 0 156.98 156.98"><defs><style>.cls-1{fill:url(#linear-gradient);}.cls-2{fill:#fbce01;}</style><linearGradient id="linear-gradient" x1="78.49" y1="17.04" x2="78.49" y2="153.91" gradientUnits="userSpaceOnUse"><stop offset="0" stop-color="#fbcb01"/><stop offset="0.57" stop-color="#ff7a00"/></linearGradient></defs><g id="Layer_2" data-name="Layer 2"><g id="Layer_1-2" data-name="Layer 1"><circle class="cls-1" cx="78.49" cy="78.49" r="78.49"/><circle cx="78.49" cy="78.49" r="60.92"/><path class="cls-2" d="M60.37,97.37c-.09-1.49-.19-3.15-.3-4.82a.92.92,0,0,0-.69-.85c-2.06-.79-4.13-1.57-6.19-2.38a3,3,0,0,1-2-3.29,3.35,3.35,0,0,1,.49-1.33c1.18-1.87,2.39-3.72,3.6-5.57a.9.9,0,0,0,0-1.25l-3.49-5.33a3,3,0,0,1-.23-3.45,3.46,3.46,0,0,1,1.84-1.46c2-.77,4-1.55,6-2.3a.92.92,0,0,0,.68-1c.1-2.18.23-4.37.36-6.55S62.3,54.66,64.18,55c1.13.18,2.23.53,3.34.82s2.1.55,3.14.86a1.06,1.06,0,0,0,1.26-.43c1.33-1.67,2.66-3.34,4-5a3.16,3.16,0,0,1,2.81-1.29,3.6,3.6,0,0,1,2.47,1.54Q83.12,53.83,85,56.2a1.08,1.08,0,0,0,1.29.4c2-.6,4.08-1.16,6.13-1.71a3.09,3.09,0,0,1,4.1,3l.36,6.48a1,1,0,0,0,.7.93l6,2.24a3.18,3.18,0,0,1,1.55,5.06c-1.17,1.74-2.31,3.5-3.46,5.25a.92.92,0,0,0,0,1.12c1.13,1.71,2.24,3.43,3.37,5.14a3.82,3.82,0,0,1,.81,2.32,3,3,0,0,1-2,2.68c-1.94.8-3.9,1.52-5.86,2.28l-.42.16c-.5.2-.59.35-.62.88-.12,2.23-.23,4.47-.38,6.7a3.11,3.11,0,0,1-4,2.86c-2-.51-4-1.06-6.07-1.61-.84-.22-1-.17-1.53.5-1.32,1.68-2.63,3.37-4,5a3,3,0,0,1-4.87,0c-1.36-1.59-2.67-3.23-4-4.85l-.3-.38a.69.69,0,0,0-.81-.25l-6.36,1.73a3.24,3.24,0,0,1-4.25-3.23ZM72,81.62h0l.12.94a8.9,8.9,0,0,0,1.41,4.11,3,3,0,0,0,2.35,1.41c2.45.1,4.9.19,7.36.21a7.46,7.46,0,0,0,3.58-.81,2.78,2.78,0,0,0,1.59-3.07.45.45,0,0,1,.17-.51,3,3,0,0,0,.91-3.46.46.46,0,0,1,.11-.56,2.56,2.56,0,0,0,.09-3.55.49.49,0,0,1-.08-.59A2.33,2.33,0,0,0,88,72.36,10.14,10.14,0,0,0,85.64,72a17.92,17.92,0,0,0-4.43.55c-.56.12-.82-.06-.84-.64a3.86,3.86,0,0,1,0-1q.34-1.44.75-2.85a8.3,8.3,0,0,0,.42-3.39A2.76,2.76,0,0,0,79,62.19c-.62,0-.94.15-1,.78s0,1-.08,1.54a1.49,1.49,0,0,1-.08.52c-.4,1-.79,2-1.23,3a22.41,22.41,0,0,1-2.65,4.67c-.37.47-.85.84-1.2,1.31s-.73,1.17-1.09,1.76a2.32,2.32,0,0,0-1.52-.5c-1,0-2.08,0-3.12,0a2.22,2.22,0,0,0-2.28,2.27v1.82c0,2.36,0,4.71,0,7.07a2.06,2.06,0,0,0,1.91,2c1.33.07,2.66.05,4,0a1.11,1.11,0,0,0,1.22-1.11A14.76,14.76,0,0,0,72,85.24C72,84,72,82.83,72,81.62Z"/></g></g></svg>