<svg xmlns="http://www.w3.org/2000/svg" xmlns:xlink="http://www.w3.org/1999/xlink" viewBox="0 0 156.98 156.98"><defs><style>.cls-1{fill:url(#linear-gradient);}.cls-2{fill:#fbce01;}</style><linearGradient id="linear-gradient" x1="78.49" y1="17.04" x2="78.49" y2="153.91" gradientUnits="userSpaceOnUse"><stop offset="0" stop-color="#fbcb01"/><stop offset="0.57" stop-color="#ff7a00"/></linearGradient></defs><g id="Layer_2" data-name="Layer 2"><g id="Layer_1-2" data-name="Layer 1"><circle class="cls-1" cx="78.49" cy="78.49" r="78.49"/><circle cx="78.49" cy="78.49" r="60.92"/><path class="cls-2" d="M75.31,95c0,3.59,0,7.17,0,10.76a1.38,1.38,0,0,1-.64,1.25,1.27,1.27,0,0,1-1.9-.91,5.58,5.58,0,0,1,0-.71q0-10.55,0-21.1v-.17c0-.47,0-.5-.49-.5q-2,0-3.93,0A1.29,1.29,0,0,1,67,82.26V78.47a1.29,1.29,0,0,1,1.26-1.26h.92c.27,0,.38-.1.38-.37,0-3.2,0-6.4,0-9.6A9.06,9.06,0,0,1,70,64.35a8.91,8.91,0,0,1,16.85-.49,10.32,10.32,0,0,1,.6,3.85c0,3,0,6.07,0,9.1,0,.29.1.41.39.4h.92A1.28,1.28,0,0,1,90,78.45q0,2,0,3.9a1.29,1.29,0,0,1-1.26,1.23c-1.33,0-2.67,0-4,0-.45,0-.48,0-.48.48,0,2.59,0,5.17,0,7.76q0,3.18,0,6.37a1.28,1.28,0,0,1-1.41,1.31,1.3,1.3,0,0,1-1.12-1.13c0-.38,0-.76,0-1.14q0-6.49,0-13a2.64,2.64,0,0,1,0-.28c0-.28-.11-.38-.38-.38-1.88,0-3.75,0-5.63,0-.29,0-.38.12-.38.4V95Zm3.15-17.75h6c.25,0,.44,0,.43-.35,0-3.3,0-6.59,0-9.88a6.35,6.35,0,0,0-10.08-5.13,6.32,6.32,0,0,0-2.28,3,6.52,6.52,0,0,0-.39,2.33c0,3.22,0,6.44,0,9.66,0,.33.15.39.43.39Zm.05,2.55H70.45c-.85,0-.85,0-.89.85,0,.31.09.43.4.42H86.59c.78,0,.78,0,.82-.8,0-.42,0-.47-.44-.47Z"/><path class="cls-2" d="M64.8,65.42c.64,0,1.27,0,1.91,0A1.29,1.29,0,0,1,68,66.68,1.27,1.27,0,0,1,66.74,68c-1.31,0-2.62,0-3.93,0a1.27,1.27,0,0,1,0-2.53c.66,0,1.32,0,2,0Z"/><path class="cls-2" d="M92.2,65.43c.65,0,1.3,0,2,0a1.27,1.27,0,0,1,0,2.53c-1.34,0-2.67,0-4,0A1.26,1.26,0,0,1,89,66.69a1.28,1.28,0,0,1,1.18-1.26h2Z"/><path class="cls-2" d="M79.76,53c0,.65,0,1.3,0,1.95a1.27,1.27,0,0,1-2.54,0c0-1.29,0-2.57,0-3.86a1.27,1.27,0,0,1,2.54,0c0,.32,0,.64,0,1v1Z"/><path class="cls-2" d="M87,59.66a1.43,1.43,0,0,1-1.37-.88,1.12,1.12,0,0,1,.29-1.29c.92-.94,1.84-1.86,2.78-2.78a1.2,1.2,0,0,1,1.74.06,1.22,1.22,0,0,1,0,1.72c-.91.94-1.83,1.87-2.78,2.77A2.57,2.57,0,0,1,87,59.66Z"/><path class="cls-2" d="M71.45,58.18a1.43,1.43,0,0,1-.88,1.38,1.14,1.14,0,0,1-1.3-.3c-.93-.9-1.84-1.82-2.74-2.75a1.26,1.26,0,0,1,1.79-1.77c.91.89,1.81,1.78,2.69,2.7A3,3,0,0,1,71.45,58.18Z"/><path class="cls-2" d="M77.88,61.93c1.31,0,1.9.52,1.88,1.34a1.28,1.28,0,0,1-1.22,1.19,2.54,2.54,0,0,0-2.1,1,2.45,2.45,0,0,0-.5,1.48,1.28,1.28,0,0,1-1.43,1.3,1.32,1.32,0,0,1-1.11-1.12,5,5,0,0,1,2.21-4.34A4.53,4.53,0,0,1,77.88,61.93Z"/></g></g></svg>