<svg xmlns="http://www.w3.org/2000/svg" viewBox="0 0 36.88 59.01"><defs><style>.cls-1{fill:#fbce01;}</style></defs><g id="Layer_2" data-name="Layer 2"><g id="Layer_1-2" data-name="Layer 1"><path class="cls-1" d="M31.35,0H5.53A5.54,5.54,0,0,0,0,5.53V53.48A5.54,5.54,0,0,0,5.53,59H31.35a5.54,5.54,0,0,0,5.53-5.53V5.53A5.54,5.54,0,0,0,31.35,0ZM18.44,55.32a3.69,3.69,0,1,1,3.69-3.68A3.68,3.68,0,0,1,18.44,55.32ZM31.35,42.88A1.38,1.38,0,0,1,30,44.26h-23a1.38,1.38,0,0,1-1.39-1.38v-36A1.39,1.39,0,0,1,6.92,5.53H30a1.38,1.38,0,0,1,1.38,1.39Z"/></g></g></svg>