<svg xmlns="http://www.w3.org/2000/svg" viewBox="0 0 46.91 46.91"><defs><style>.cls-1{fill:#fff;}</style></defs><g id="Layer_2" data-name="Layer 2"><g id="Layer_1-2" data-name="Layer 1"><path class="cls-1" d="M23.45,0A23.46,23.46,0,1,0,46.91,23.45,23.45,23.45,0,0,0,23.45,0ZM35,29.61a1.13,1.13,0,0,1,0,1.61L31.21,35a1.13,1.13,0,0,1-1.61,0l-6.15-6.2L17.3,35a1.13,1.13,0,0,1-1.61,0L12,31.21a1.15,1.15,0,0,1,0-1.61l6.21-6.15L12,17.3a1.15,1.15,0,0,1,0-1.61l3.75-3.75a1.15,1.15,0,0,1,1.61,0l6.14,6.22L29.61,12a1.15,1.15,0,0,1,1.61,0L35,15.7a1.13,1.13,0,0,1,0,1.61l-6.21,6.14Z"/></g></g></svg>