<svg xmlns="http://www.w3.org/2000/svg" viewBox="0 0 127.63 127.63"><defs><style>.cls-1{fill:#fbce01;}</style></defs><g id="Layer_2" data-name="Layer 2"><g id="Layer_1-2" data-name="Layer 1"><path class="cls-1" d="M127.63,63.82A63.82,63.82,0,1,1,63.82,0,63.81,63.81,0,0,1,127.63,63.82ZM63.82,76.68A11.84,11.84,0,1,0,75.65,88.52,11.84,11.84,0,0,0,63.82,76.68ZM52.58,34.13l1.91,35a3.08,3.08,0,0,0,3.08,2.92H70.06a3.09,3.09,0,0,0,3.09-2.92l1.9-35A3.08,3.08,0,0,0,72,30.88H55.66a3.08,3.08,0,0,0-3.08,3.25Z"/></g></g></svg>