<svg xmlns="http://www.w3.org/2000/svg" viewBox="0 0 58.98 58.98"><defs><style>.cls-1{fill:#fbce01;}</style></defs><g id="Layer_2" data-name="Layer 2"><g id="Layer_1-2" data-name="Layer 1"><path class="cls-1" d="M29.49,0A29.49,29.49,0,1,0,59,29.49,29.49,29.49,0,0,0,29.49,0Zm0,53.27A23.78,23.78,0,1,1,53.27,29.49,23.77,23.77,0,0,1,29.49,53.27Zm7.35-12.41-10.1-7.34a1.42,1.42,0,0,1-.58-1.15V12.84a1.43,1.43,0,0,1,1.43-1.42h3.8a1.43,1.43,0,0,1,1.43,1.42V29.69l7.94,5.78a1.42,1.42,0,0,1,.31,2l-2.23,3.08a1.44,1.44,0,0,1-2,.31Z"/></g></g></svg>