<svg xmlns="http://www.w3.org/2000/svg" viewBox="0 0 57.84 57.85"><defs><style>.cls-1{fill:#fbce01;}</style></defs><g id="Layer_2" data-name="Layer 2"><g id="Layer_1-2" data-name="Layer 1"><path class="cls-1" d="M34.35,21.69v3.62A1.36,1.36,0,0,1,33,26.66H26.66V33a1.36,1.36,0,0,1-1.35,1.36H21.69A1.36,1.36,0,0,1,20.34,33V26.66H14a1.36,1.36,0,0,1-1.36-1.35V21.69A1.36,1.36,0,0,1,14,20.34h6.33V14a1.36,1.36,0,0,1,1.35-1.36h3.62A1.36,1.36,0,0,1,26.66,14v6.33H33A1.36,1.36,0,0,1,34.35,21.69ZM57.06,53.86l-3.2,3.2a2.7,2.7,0,0,1-3.83,0L38.75,45.79A2.71,2.71,0,0,1,38,43.87V42A23.49,23.49,0,1,1,42,38h1.84a2.71,2.71,0,0,1,1.92.79L57.06,50A2.73,2.73,0,0,1,57.06,53.86ZM38.87,23.5A15.37,15.37,0,1,0,23.5,38.87,15.36,15.36,0,0,0,38.87,23.5Z"/></g></g></svg>